<svg width="74" height="79" viewBox="0 0 74 79" fill="none" xmlns="http://www.w3.org/2000/svg">
<path d="M37 25.9219C34.4845 25.9219 32.0254 26.7182 29.9338 28.2102C27.8423 29.7022 26.2121 31.8228 25.2494 34.3039C24.2868 36.785 24.0349 39.5151 24.5256 42.149C25.0164 44.7829 26.2277 47.2023 28.0065 49.1012C29.7852 51.0001 32.0515 52.2933 34.5187 52.8172C36.9859 53.3411 39.5432 53.0722 41.8673 52.0446C44.1913 51.0169 46.1777 49.2765 47.5753 47.0436C48.9728 44.8107 49.7188 42.1855 49.7188 39.5C49.7149 35.9001 48.3737 32.4488 45.9893 29.9033C43.6049 27.3578 40.372 25.926 37 25.9219V25.9219ZM37 50.6094C34.9418 50.6094 32.9299 49.9578 31.2186 48.7371C29.5073 47.5164 28.1735 45.7813 27.3859 43.7514C26.5983 41.7214 26.3922 39.4877 26.7937 37.3327C27.1952 35.1777 28.1863 33.1982 29.6417 31.6445C31.097 30.0908 32.9512 29.0327 34.9698 28.6041C36.9885 28.1754 39.0808 28.3954 40.9823 29.2363C42.8838 30.0771 44.509 31.501 45.6525 33.328C46.7959 35.1549 47.4062 37.3028 47.4062 39.5C47.4032 42.4454 46.3058 45.2692 44.355 47.3519C42.4041 49.4346 39.759 50.6061 37 50.6094ZM49.7188 9.875H24.2812C20.2961 9.87982 16.4755 11.572 13.6575 14.5803C10.8396 17.5887 9.25451 21.6675 9.25 25.9219V53.0781C9.25451 57.3325 10.8396 61.4113 13.6575 64.4197C16.4755 67.428 20.2961 69.1202 24.2812 69.125H49.7188C53.7039 69.1202 57.5245 67.428 60.3425 64.4197C63.1604 61.4113 64.7455 57.3325 64.75 53.0781V25.9219C64.7455 21.6675 63.1604 17.5887 60.3425 14.5803C57.5245 11.572 53.7039 9.87982 49.7188 9.875V9.875ZM62.4375 53.0781C62.4337 56.678 61.0924 60.1293 58.708 62.6748C56.3236 65.2203 53.0908 66.6522 49.7188 66.6562H24.2812C20.9092 66.6522 17.6764 65.2203 15.292 62.6748C12.9076 60.1293 11.5663 56.678 11.5625 53.0781V25.9219C11.5663 22.322 12.9076 18.8707 15.292 16.3252C17.6764 13.7797 20.9092 12.3478 24.2812 12.3438H49.7188C53.0908 12.3478 56.3236 13.7797 58.708 16.3252C61.0924 18.8707 62.4337 22.322 62.4375 25.9219V53.0781ZM54.3438 23.4531C54.3438 23.9414 54.2081 24.4187 53.954 24.8247C53.6999 25.2307 53.3388 25.5471 52.9162 25.734C52.4936 25.9208 52.0287 25.9697 51.5801 25.8744C51.1315 25.7792 50.7195 25.5441 50.3961 25.1988C50.0727 24.8535 49.8524 24.4136 49.7632 23.9348C49.674 23.4559 49.7198 22.9595 49.8948 22.5084C50.0698 22.0573 50.3662 21.6717 50.7465 21.4004C51.1268 21.1292 51.5739 20.9844 52.0312 20.9844C52.6443 20.9852 53.2321 21.2456 53.6656 21.7084C54.0991 22.1712 54.343 22.7986 54.3438 23.4531V23.4531Z" fill="aqua"/>
</svg>
