<svg width="76" height="76" viewBox="0 0 76 76" fill="none" xmlns="http://www.w3.org/2000/svg">
<path d="M72.8955 20.6934C72.7607 20.3679 72.5324 20.0897 72.2395 19.894C71.9466 19.6983 71.6022 19.5938 71.2499 19.5938H61.8708C60.863 17.7332 59.435 16.1334 57.7005 14.9215C55.9659 13.7097 53.9726 12.9191 51.879 12.6127C49.7853 12.3063 47.649 12.4926 45.64 13.1566C43.6309 13.8207 41.8044 14.9442 40.3058 16.438C39.013 17.6984 37.9854 19.2047 37.2835 20.8682C36.5816 22.5318 36.2196 24.3189 36.2187 26.1244L36.2166 28.6995C23.6312 25.723 13.2429 15.4737 13.1346 15.3654C12.9047 15.1355 12.6163 14.9729 12.3007 14.8952C11.985 14.8176 11.6541 14.8278 11.3438 14.9247C11.0336 15.0216 10.7557 15.2016 10.5404 15.4452C10.3251 15.6888 10.1806 15.9866 10.1225 16.3065C7.55512 30.4267 11.7844 39.8623 15.7848 45.291C17.9206 48.2034 20.5387 50.7291 23.5258 52.7592C18.9174 58.3303 11.3308 61.2391 11.2497 61.2697C10.9985 61.3639 10.7718 61.5136 10.5865 61.7077C10.4013 61.9018 10.2623 62.1353 10.1799 62.3907C10.0975 62.646 10.0739 62.9167 10.1108 63.1825C10.1477 63.4482 10.2441 63.7022 10.3929 63.9255C10.6898 64.3714 13.59 68.2813 23.7499 68.2813C44.4546 68.2813 61.741 52.2862 63.4006 31.7434L72.5096 22.6346C72.7587 22.3855 72.9283 22.0681 72.997 21.7226C73.0657 21.377 73.0304 21.0189 72.8955 20.6934V20.6934ZM60.4125 29.6934C60.1062 29.9998 59.922 30.4073 59.8945 30.8397C58.6841 49.8373 42.8075 64.7188 23.7499 64.7188C19.6085 64.7188 16.9937 64.0036 15.4184 63.2944C18.7752 61.6069 24.2439 58.2828 27.6069 53.238C27.7463 53.028 27.8396 52.7909 27.8806 52.5423C27.9217 52.2936 27.9097 52.0391 27.8453 51.7954C27.781 51.5518 27.6657 51.3245 27.5072 51.1286C27.3487 50.9327 27.1505 50.7726 26.9256 50.6588C26.8808 50.6362 22.4004 48.3283 18.5523 43.0407C13.9676 36.7407 12.1558 29.0638 13.1497 20.1842C17.4764 23.8667 26.8493 30.8228 37.7031 32.6325C37.9581 32.675 38.2194 32.6615 38.4687 32.5928C38.718 32.5242 38.9493 32.4021 39.1467 32.235C39.344 32.0679 39.5027 31.8599 39.6115 31.6253C39.7204 31.3908 39.7768 31.1354 39.777 30.8768L39.7812 26.1274V26.1256C39.8063 23.434 40.8954 20.8617 42.8108 18.9705C44.7262 17.0792 47.3121 16.0228 50.0038 16.0318C51.9458 16.0587 53.839 16.6441 55.4573 17.718C57.0756 18.792 58.3505 20.3091 59.1297 22.0881C59.2684 22.4055 59.4966 22.6756 59.7864 22.8653C60.0762 23.055 60.415 23.1561 60.7613 23.1563H66.9494L60.4125 29.6934Z" fill="aqua"/>
</svg>
